<?xml version="1.0" encoding="utf-8"?>
<!-- Generator: Adobe Illustrator 26.0.1, SVG Export Plug-In . SVG Version: 6.00 Build 0)  -->
<svg version="1.1" id="Layer_1" xmlns="http://www.w3.org/2000/svg" xmlns:xlink="http://www.w3.org/1999/xlink" x="0px" y="0px"
	 viewBox="0 0 392 156" style="enable-background:new 0 0 392 156;" xml:space="preserve">
<style type="text/css">
	.st0{fill:#262262;}
</style>
<g>
	<g>
		<path d="M78.2,33.4c-1.7-4-4.1-7.5-7.1-10.5c-0.4-0.4-0.7-0.7-1.1-1.1c-0.4-0.3-0.8-0.7-1.1-1c-0.4-0.3-0.8-0.6-1.2-0.9
			c-0.3-0.3-0.7-0.5-1-0.7c-0.1-0.1-0.3-0.2-0.4-0.3c-0.7-0.5-1.4-0.9-2.1-1.3c-1.1-0.6-2.3-1.2-3.5-1.8c-3.6-1.5-7.3-2.4-11.3-2.5
			c-0.6,0-1.1,0-1.7,0c-0.5,0-1,0-1.5,0c-3.6,0.2-7,0.9-10.3,2.2c-2.4,0.9-4.6,2.1-6.7,3.5c-0.4,0.3-0.8,0.6-1.2,0.9
			c-0.4,0.3-0.8,0.6-1.2,0.9c-0.4,0.3-0.8,0.7-1.1,1c-0.4,0.3-0.7,0.7-1.1,1.1c-3,3-5.3,6.5-7.1,10.5c-1.7,4-2.6,8.3-2.6,12.8v42.2
			h18.8V46.2c0-1.9,0.4-3.8,1.1-5.5c0.7-1.7,1.7-3.2,3-4.5c0.7-0.6,1.4-1.2,2.1-1.7c0.8-0.5,1.6-0.9,2.4-1.3c1.5-0.6,3.1-1,4.9-1.1
			c0.2,0,0.4,0,0.5,0c0.2,0,0.5,0,0.7,0c1.7,0.1,3.4,0.4,4.9,1.1c0.8,0.4,1.6,0.8,2.4,1.3c0.8,0.5,1.4,1.1,2.1,1.7
			c0.7,0.6,1.2,1.4,1.7,2.1c0.5,0.8,0.9,1.6,1.3,2.4c0.7,1.7,1.1,3.5,1.1,5.5v42.2h18.8V46.2C80.7,41.7,79.9,37.4,78.2,33.4z"/>
		<path d="M309.9,56V13.8h-18.8V56c0,1.9-0.4,3.8-1.1,5.5c-0.4,0.9-0.8,1.7-1.3,2.4c-0.5,0.7-1.1,1.5-1.7,2.1
			c-0.6,0.6-1.3,1.2-2.1,1.7c-0.7,0.5-1.5,0.9-2.4,1.3c-1.5,0.7-3.2,1-4.9,1.1c-0.2,0-0.5,0-0.7,0c-0.2,0-0.4,0-0.5,0
			c-1.7-0.1-3.3-0.5-4.9-1.1c-0.9-0.4-1.7-0.8-2.5-1.3c-0.8-0.5-1.5-1.1-2.1-1.7c-1.3-1.3-2.3-2.8-3-4.5c-0.7-1.7-1.1-3.5-1.1-5.5
			V13.8h-18.8V56c0,4.5,0.9,8.8,2.6,12.8s4.1,7.5,7.1,10.5c0.4,0.4,0.7,0.7,1.1,1.1c0.4,0.3,0.8,0.7,1.1,1c0.4,0.3,0.8,0.6,1.2,0.9
			c0.4,0.3,0.8,0.6,1.2,0.9c2.1,1.4,4.3,2.6,6.7,3.5c3.3,1.3,6.8,2,10.3,2.2c0.5,0,1,0,1.5,0c0.6,0,1.1,0,1.7,0
			c4-0.2,7.7-1,11.3-2.5c1.2-0.5,2.4-1.1,3.5-1.8c0.7-0.4,1.4-0.8,2.1-1.3c0.1-0.1,0.3-0.2,0.4-0.3c0.3-0.2,0.7-0.5,1-0.7
			c0.4-0.3,0.8-0.6,1.2-0.9c0.4-0.3,0.8-0.7,1.1-1c0.4-0.4,0.7-0.7,1.1-1.1c3-3,5.4-6.5,7.1-10.5C309,64.8,309.9,60.5,309.9,56z"/>
		<path d="M122.9,70.4c0.7,0.2,1.5,0.4,2.2,0.5c0.7,0.1,1.5,0.1,2.2,0.1c1.8,0,3.6-0.2,5.3-0.8c1.7-0.5,3.3-1.2,4.8-2.2
			c1.5-0.9,2.8-2.1,4-3.5c1.2-1.4,2.1-2.9,2.9-4.5l13.8,13.9c-1.8,2.5-3.8,4.7-6,6.7c-2.3,2-4.7,3.6-7.4,5c-2.6,1.4-5.4,2.4-8.3,3.1
			c-2.9,0.7-5.9,1.1-9,1.1c-5.2,0-10.1-1-14.6-2.9c-4.6-1.9-8.6-4.6-12-8.1c-3.4-3.5-6.1-7.5-8.1-12.3c-2-4.8-3-10-3-15.7
			c0-5.8,1-11.2,3-16c2-4.8,4.7-8.9,8.1-12.3c3.4-3.4,7.4-6,12-7.9c4.6-1.9,9.4-2.8,14.6-2.8c3.1,0,6.1,0.4,9,1.1
			c2.9,0.7,5.7,1.8,8.4,3.2s5.1,3.1,7.4,5.1s4.3,4.2,6.1,6.7L122.9,70.4z M132.6,31.6c-0.9-0.3-1.7-0.5-2.6-0.6s-1.7-0.1-2.6-0.1
			c-2.6,0-5,0.5-7.3,1.4s-4.2,2.3-5.9,4c-1.7,1.8-3,3.9-4,6.3s-1.4,5.2-1.4,8.3c0,0.7,0,1.5,0.1,2.3s0.2,1.8,0.3,2.6
			c0.2,0.9,0.4,1.8,0.6,2.6c0.2,0.8,0.5,1.6,0.9,2.2L132.6,31.6z"/>
		<g>
			<polygon points="196.5,70.9 184,88.8 163.3,88.8 186.2,56.1 			"/>
			<polygon points="236.5,13.8 213.6,46.6 203.3,31.8 215.9,13.8 			"/>
			<path d="M236.5,88.8h-20.6l-0.3-0.4c-9.4-13.2-22.6-32.1-34.2-48.7c-6.2-8.9-12.1-17.3-17-24.3l-1.1-1.6h20.8l0.3,0.4L236.5,88.8
				z"/>
		</g>
		<g>
			<path d="M377.2,13.3v15.1h-30.9c-1.5,0-3,0.3-4.3,0.8c-1.3,0.5-2.5,1.3-3.5,2.3c-1,1-1.8,2.1-2.4,3.4c-0.6,1.2-0.9,2.6-0.9,4
				v13.6h-15.5V39c0-3.5,0.7-6.9,2.1-10c1.4-3.1,3.3-5.8,5.7-8.2c2.4-2.3,5.2-4.2,8.4-5.5c3.2-1.3,6.7-2,10.3-2H377.2z"/>
			<path d="M361.6,49.6h15.6v13.6c0,3.5-0.7,6.9-2.1,10c-1.4,3.1-3.3,5.8-5.7,8.2c-2.4,2.3-5.2,4.2-8.4,5.5c-3.2,1.3-6.7,2-10.3,2
				h-30.9V73.8h30.9c1.5,0,3-0.3,4.2-0.8c1.3-0.5,2.5-1.3,3.5-2.3c1-0.9,1.8-2.1,2.4-3.3c0.6-1.3,0.9-2.6,0.9-4.1V49.6z"/>
		</g>
	</g>
	<g>
		<g>
			<path class="st0" d="M91.8,121.6c-0.2,0-0.4-0.1-0.6-0.1C91.4,121.6,91.6,121.6,91.8,121.6z M93.6,122.2c0.9,0.5,1.7,1,2.4,1.8
				c0.7,0.8,1.2,1.6,1.6,2.6c0.2,0.5,0.3,0.9,0.4,1.4c-0.1-0.6-0.2-1.2-0.4-1.8c-0.4-1-0.9-1.9-1.6-2.5s-1.5-1.2-2.4-1.5
				c-0.6-0.2-1.2-0.3-1.8-0.4c0,0,0.1,0,0.1,0C92.5,121.8,93.1,121.9,93.6,122.2z M91.9,137.5C91.9,137.5,91.9,137.5,91.9,137.5
				c-0.1,0-0.2,0-0.3,0C91.7,137.6,91.8,137.5,91.9,137.5z M96,135.1c-0.7,0.7-1.5,1.3-2.4,1.8c-0.6,0.3-1.1,0.5-1.7,0.6
				c0.6-0.1,1.1-0.2,1.7-0.4c0.9-0.4,1.7-0.9,2.4-1.5s1.2-1.5,1.6-2.5c0.2-0.6,0.4-1.1,0.4-1.8c-0.1,0.5-0.2,0.9-0.4,1.4
				C97.2,133.5,96.7,134.4,96,135.1z M83.2,129.6c0,0.6,0.1,1.1,0.2,1.7C83.3,130.7,83.3,130.2,83.2,129.6c0.1-0.6,0.1-1.1,0.2-1.6
				C83.3,128.5,83.2,129,83.2,129.6z"/>
			<path class="st0" d="M98.2,129.6c0-0.6-0.1-1.1-0.2-1.6C98.1,128.4,98.1,129,98.2,129.6c-0.1,0.6-0.1,1.1-0.2,1.7
				C98.1,130.7,98.2,130.1,98.2,129.6z M90.2,121.5c-0.2,0-0.4,0.1-0.7,0.1C89.8,121.6,90,121.6,90.2,121.5z M85.5,123.6
				c-0.7,0.7-1.2,1.5-1.6,2.5c-0.2,0.6-0.4,1.2-0.4,1.8c0.1-0.5,0.2-0.9,0.4-1.4c0.4-1,0.9-1.8,1.6-2.6c0.7-0.7,1.5-1.3,2.4-1.8
				c0.6-0.3,1.1-0.5,1.7-0.6c0,0,0,0,0,0c-0.6,0.1-1.2,0.2-1.7,0.4C86.9,122.4,86.1,122.9,85.5,123.6z M89.5,137.5
				c0.1,0,0.2,0,0.4,0C89.8,137.6,89.6,137.5,89.5,137.5C89.5,137.5,89.5,137.5,89.5,137.5z M85.4,135.1c-0.7-0.8-1.2-1.6-1.6-2.6
				c-0.2-0.4-0.3-0.9-0.4-1.4c0.1,0.6,0.2,1.2,0.4,1.8c0.4,1,0.9,1.9,1.6,2.5c0.7,0.7,1.4,1.2,2.4,1.5c0.5,0.2,1.1,0.3,1.7,0.4
				c-0.6-0.1-1.1-0.3-1.7-0.6C86.9,136.5,86.1,135.9,85.4,135.1z"/>
		</g>
		<g>
			<path class="st0" d="M156.8,122.2c0.9,0.5,1.7,1,2.4,1.8c0.7,0.8,1.2,1.6,1.6,2.6c0.2,0.5,0.3,0.9,0.4,1.4
				c-0.1-0.6-0.2-1.2-0.5-1.8c-0.4-1-0.9-1.9-1.6-2.5c-0.7-0.7-1.5-1.2-2.4-1.5c-0.6-0.2-1.2-0.3-1.8-0.4c0,0,0,0,0.1,0
				C155.7,121.8,156.2,121.9,156.8,122.2z M155,121.6c-0.2,0-0.4-0.1-0.6-0.1C154.6,121.6,154.8,121.6,155,121.6z M155.1,137.5
				C155.1,137.5,155.1,137.5,155.1,137.5c-0.1,0-0.2,0-0.3,0C154.9,137.6,155,137.5,155.1,137.5z M159.2,135.1
				c-0.7,0.7-1.5,1.3-2.4,1.8c-0.5,0.3-1.1,0.5-1.7,0.6c0.6-0.1,1.1-0.2,1.7-0.4c0.9-0.4,1.7-0.9,2.4-1.5c0.7-0.7,1.2-1.5,1.6-2.5
				c0.2-0.6,0.4-1.1,0.5-1.8c-0.1,0.5-0.2,0.9-0.4,1.4C160.4,133.5,159.9,134.4,159.2,135.1z M146.4,129.6c0,0.6,0.1,1.1,0.2,1.7
				C146.5,130.7,146.5,130.2,146.4,129.6c0.1-0.6,0.1-1.1,0.2-1.6C146.5,128.5,146.4,129,146.4,129.6z"/>
			<path class="st0" d="M161.4,129.6c0-0.6-0.1-1.1-0.2-1.6C161.3,128.4,161.3,129,161.4,129.6c-0.1,0.6-0.1,1.1-0.2,1.7
				C161.3,130.7,161.4,130.1,161.4,129.6z M148.6,123.6c-0.7,0.7-1.2,1.5-1.6,2.5c-0.2,0.6-0.4,1.2-0.5,1.8c0.1-0.5,0.2-0.9,0.4-1.4
				c0.4-1,0.9-1.8,1.6-2.6c0.7-0.7,1.5-1.3,2.4-1.8c0.5-0.3,1.1-0.5,1.7-0.6c0,0,0,0,0.1,0c-0.6,0.1-1.2,0.2-1.8,0.4
				C150.1,122.4,149.3,122.9,148.6,123.6z M153.4,121.5c-0.2,0-0.4,0-0.6,0.1C153,121.6,153.2,121.6,153.4,121.5z M148.6,135.1
				c-0.7-0.8-1.2-1.6-1.6-2.6c-0.2-0.4-0.3-0.9-0.4-1.4c0.1,0.6,0.2,1.2,0.5,1.8c0.4,1,0.9,1.9,1.6,2.5c0.7,0.7,1.5,1.2,2.4,1.5
				c0.5,0.2,1.1,0.3,1.7,0.4c-0.6-0.1-1.1-0.3-1.7-0.6C150.1,136.5,149.3,135.9,148.6,135.1z M152.7,137.5c0.1,0,0.2,0,0.3,0
				C152.9,137.6,152.8,137.5,152.7,137.5C152.7,137.5,152.7,137.5,152.7,137.5z"/>
		</g>
		<path class="st0" d="M137.2,120.9l-5.5,5.6c-0.3-0.8-0.6-1.5-1.1-2.1c-0.5-0.6-1-1.1-1.6-1.6s-1.2-0.8-1.9-1s-1.4-0.3-2.1-0.3
			c-1,0-2,0.2-2.9,0.6c-0.9,0.4-1.7,1-2.4,1.8c-0.7,0.8-1.2,1.7-1.6,2.7c-0.4,1-0.6,2.2-0.6,3.5c0,1,0.2,2,0.6,2.9
			c0.4,0.9,0.9,1.7,1.6,2.4s1.5,1.2,2.4,1.6c0.9,0.4,1.9,0.6,2.9,0.6c0.7,0,1.4-0.1,2.1-0.3s1.3-0.5,1.9-0.9s1.1-0.8,1.6-1.4
			c0.5-0.5,0.9-1.1,1.1-1.8l5.5,5.6c-0.7,1-1.5,1.9-2.4,2.7s-1.9,1.5-2.9,2s-2.2,1-3.3,1.3c-1.2,0.3-2.4,0.4-3.6,0.4
			c-2.1,0-4-0.4-5.8-1.2c-1.8-0.8-3.4-1.9-4.8-3.2c-1.4-1.4-2.4-3-3.2-4.8s-1.2-3.8-1.2-5.9c0-2.3,0.4-4.4,1.2-6.4s1.9-3.7,3.2-5.2
			c1.4-1.5,3-2.6,4.8-3.5c1.8-0.9,3.8-1.3,5.8-1.3c1.2,0,2.4,0.2,3.6,0.5c1.2,0.3,2.3,0.8,3.4,1.4s2.1,1.3,3,2.2
			C135.8,118.8,136.6,119.8,137.2,120.9z"/>
		<path class="st0" d="M195.5,103.2v13.8c-0.4-0.6-0.9-1.1-1.5-1.5c-0.6-0.4-1.2-0.7-1.9-1c-0.7-0.2-1.4-0.4-2.1-0.5
			c-0.7-0.1-1.4-0.2-2-0.2c-2.1,0-4,0.4-5.9,1.2c-1.8,0.8-3.4,1.9-4.8,3.3c-1.4,1.4-2.4,3.1-3.2,5c-0.8,1.9-1.2,4-1.2,6.2
			c0,2.2,0.4,4.3,1.2,6.2c0.8,1.9,1.9,3.6,3.2,5c1.4,1.4,3,2.5,4.8,3.3c1.8,0.8,3.8,1.2,5.9,1.2c1,0,1.9-0.1,2.8-0.4
			c0.9-0.2,1.8-0.6,2.7-1c0.9-0.4,1.7-0.9,2.5-1.5s1.5-1.2,2.3-1.8v4.1h4.7v-41.4L195.5,103.2L195.5,103.2z M195,132.6
			c-0.4,1-0.9,1.8-1.6,2.6c-0.7,0.7-1.5,1.3-2.4,1.8c-0.9,0.5-1.9,0.7-2.9,0.7c-1,0-2-0.2-2.9-0.6c-0.9-0.4-1.7-1-2.4-1.8
			c-0.7-0.7-1.2-1.6-1.6-2.6c-0.4-1-0.6-2-0.6-3.1c0-1.2,0.2-2.4,0.6-3.4c0.4-1,0.9-1.8,1.6-2.5s1.5-1.2,2.4-1.6
			c0.9-0.4,1.9-0.5,2.9-0.5c1,0,2,0.2,2.9,0.7c0.9,0.5,1.7,1.1,2.4,1.8c0.7,0.8,1.2,1.6,1.6,2.6c0.4,1,0.6,2,0.6,3
			C195.5,130.6,195.4,131.6,195,132.6z"/>
		<path class="st0" d="M220.5,137.4c0.3,0.1,0.6,0.1,0.9,0.2s0.6,0,0.9,0c0.7,0,1.4-0.1,2.1-0.3c0.7-0.2,1.3-0.5,1.9-0.9
			s1.1-0.8,1.6-1.4s0.9-1.1,1.1-1.8l5.5,5.6c-0.7,1-1.5,1.9-2.4,2.7s-1.9,1.5-2.9,2s-2.2,1-3.3,1.3c-1.2,0.3-2.4,0.4-3.6,0.4
			c-2.1,0-4-0.4-5.8-1.2s-3.4-1.9-4.8-3.2s-2.4-3-3.2-4.9s-1.2-4-1.2-6.3c0-2.3,0.4-4.5,1.2-6.4c0.8-1.9,1.9-3.6,3.2-5
			s3-2.4,4.8-3.2c1.8-0.8,3.8-1.1,5.8-1.1c1.2,0,2.4,0.1,3.6,0.4s2.3,0.7,3.3,1.3s2,1.2,3,2c0.9,0.8,1.7,1.7,2.4,2.7L220.5,137.4z
			 M224.4,121.8c-0.4-0.1-0.7-0.2-1-0.2s-0.7,0-1.1,0c-1,0-2,0.2-2.9,0.6s-1.7,0.9-2.4,1.6c-0.7,0.7-1.2,1.5-1.6,2.5
			s-0.6,2.1-0.6,3.3c0,0.3,0,0.6,0,0.9s0.1,0.7,0.1,1.1c0.1,0.4,0.1,0.7,0.2,1c0.1,0.3,0.2,0.6,0.4,0.9L224.4,121.8z"/>
		<path class="st0" d="M290.2,107c0,0.7-0.1,1.4-0.4,2s-0.6,1.1-1.1,1.6c-0.5,0.5-1,0.8-1.6,1.1s-1.3,0.4-2,0.4s-1.4-0.1-2-0.4
			s-1.1-0.6-1.6-1.1c-0.5-0.5-0.8-1-1.1-1.6s-0.4-1.3-0.4-2c0-0.7,0.1-1.3,0.4-2c0.3-0.6,0.6-1.1,1.1-1.6s1-0.8,1.6-1.1
			s1.3-0.4,2-0.4s1.4,0.1,2,0.4s1.1,0.6,1.6,1.1c0.5,0.5,0.8,1,1.1,1.6C290,105.6,290.2,106.3,290.2,107z M288.9,144.6h-7.6V115h7.6
			V144.6z"/>
		<path class="st0" d="M320.3,120.9l-5.5,5.6c-0.3-0.8-0.6-1.5-1.1-2.1s-1-1.1-1.6-1.6s-1.2-0.8-1.9-1s-1.4-0.3-2.1-0.3
			c-1,0-2,0.2-2.9,0.6c-0.9,0.4-1.7,1-2.4,1.8c-0.7,0.8-1.2,1.7-1.6,2.7s-0.6,2.2-0.6,3.5c0,1,0.2,2,0.6,2.9s0.9,1.7,1.6,2.4
			c0.7,0.7,1.5,1.2,2.4,1.6c0.9,0.4,1.9,0.6,2.9,0.6c0.7,0,1.4-0.1,2.1-0.3c0.7-0.2,1.3-0.5,1.9-0.9s1.1-0.8,1.6-1.4
			c0.5-0.5,0.9-1.1,1.1-1.8l5.5,5.6c-0.7,1-1.5,1.9-2.4,2.7c-0.9,0.8-1.9,1.5-2.9,2s-2.2,1-3.3,1.3c-1.2,0.3-2.4,0.4-3.6,0.4
			c-2.1,0-4-0.4-5.8-1.2s-3.4-1.9-4.8-3.2c-1.4-1.4-2.4-3-3.2-4.8c-0.8-1.8-1.2-3.8-1.2-5.9c0-2.3,0.4-4.4,1.2-6.4
			c0.8-2,1.9-3.7,3.2-5.2c1.4-1.5,3-2.6,4.8-3.5s3.8-1.3,5.8-1.3c1.2,0,2.4,0.2,3.6,0.5c1.2,0.3,2.3,0.8,3.4,1.4s2.1,1.3,3,2.2
			C318.9,118.8,319.7,119.8,320.3,120.9z"/>
		<path class="st0" d="M104.6,123.2c-0.8-1.9-1.9-3.6-3.2-5c0,0,0,0,0,0c-1.4-1.4-2.9-2.4-4.8-3.2c-1.6-0.7-3.3-1.1-5.1-1.1
			c-0.2,0-0.5,0-0.7,0s-0.5,0-0.7,0c-1.8,0.1-3.5,0.5-5.1,1.1c-1.8,0.8-3.4,1.8-4.8,3.2c0,0,0,0,0,0c-1.4,1.4-2.4,3-3.2,5
			c-0.8,1.9-1.2,4-1.2,6.3c0,2.5,0.4,4.7,1.2,6.6s1.9,3.6,3.2,4.9l0,0c1.4,1.3,3,2.4,4.8,3.1c1.6,0.6,3.3,1,5.1,1c0.2,0,0.5,0,0.7,0
			s0.5,0,0.7,0c1.8-0.1,3.5-0.4,5.1-1c1.8-0.7,3.4-1.7,4.8-3.1l0,0l0,3.6h4.4v-15.1C105.8,127.3,105.4,125.1,104.6,123.2z
			 M91.2,137.6c-0.2,0-0.3,0-0.5,0s-0.3,0-0.5,0c-0.1,0-0.2,0-0.3,0c-0.7-0.1-1.4-0.2-2.1-0.5c-0.9-0.4-1.7-0.9-2.4-1.5
			c-0.7-0.7-1.2-1.5-1.6-2.5c-0.2-0.6-0.4-1.1-0.4-1.8c-0.1-0.5-0.2-1.1-0.2-1.7c0-0.6,0.1-1.1,0.2-1.6c0.1-0.6,0.2-1.2,0.4-1.8
			c0.4-1,0.9-1.9,1.6-2.5c0.7-0.7,1.4-1.2,2.4-1.5c0.8-0.3,1.6-0.5,2.4-0.5c0.2,0,0.3,0,0.5,0s0.3,0,0.5,0c0.8,0,1.6,0.2,2.4,0.5
			c0.9,0.4,1.7,0.9,2.4,1.5s1.2,1.5,1.6,2.5c0.2,0.6,0.4,1.2,0.4,1.8c0.1,0.5,0.2,1.1,0.2,1.6c0,0.6-0.1,1.1-0.2,1.7
			c-0.1,0.6-0.2,1.2-0.4,1.8c-0.4,1-0.9,1.9-1.6,2.5s-1.5,1.2-2.4,1.5c-0.7,0.2-1.3,0.4-2.1,0.5C91.4,137.6,91.3,137.6,91.2,137.6z"
			/>
		<path class="st0" d="M167.8,123.2c-0.8-1.9-1.9-3.6-3.2-5c0,0,0,0,0,0c-1.4-1.4-3-2.4-4.8-3.2c-1.6-0.7-3.3-1.1-5.1-1.1
			c-0.2,0-0.5,0-0.7,0s-0.5,0-0.7,0c-1.8,0.1-3.5,0.5-5.1,1.1c-1.8,0.8-3.4,1.8-4.8,3.2c0,0,0,0,0,0c-1.4,1.4-2.4,3-3.2,5
			c-0.8,1.9-1.2,4-1.2,6.3c0,2.5,0.4,4.7,1.2,6.6s1.9,3.6,3.2,4.9l0,0c1.4,1.3,3,2.4,4.8,3.1c1.6,0.6,3.3,1,5.1,1c0.2,0,0.5,0,0.7,0
			s0.5,0,0.7,0c1.8-0.1,3.5-0.4,5.1-1c1.8-0.7,3.4-1.7,4.8-3.1l0,0l-0.1,3.6h4.5v-15.1C168.9,127.3,168.5,125.1,167.8,123.2z
			 M154.4,137.6c-0.2,0-0.3,0-0.5,0s-0.3,0-0.5,0c-0.1,0-0.2,0-0.3,0c-0.7-0.1-1.4-0.2-2.1-0.5c-0.9-0.4-1.7-0.9-2.4-1.5
			c-0.7-0.7-1.2-1.5-1.6-2.5c-0.2-0.6-0.4-1.1-0.5-1.8c-0.1-0.5-0.2-1.1-0.2-1.7c0-0.6,0.1-1.1,0.2-1.6c0.1-0.6,0.2-1.2,0.5-1.8
			c0.4-1,0.9-1.9,1.6-2.5c0.7-0.7,1.5-1.2,2.4-1.5c0.8-0.3,1.5-0.5,2.4-0.5c0.2,0,0.3,0,0.5,0s0.3,0,0.5,0c0.8,0,1.6,0.2,2.4,0.5
			c0.9,0.4,1.7,0.9,2.4,1.5c0.7,0.7,1.2,1.5,1.6,2.5c0.2,0.6,0.4,1.2,0.5,1.8c0.1,0.5,0.2,1.1,0.2,1.6c0,0.6-0.1,1.1-0.2,1.7
			c-0.1,0.6-0.2,1.2-0.5,1.8c-0.4,1-0.9,1.9-1.6,2.5c-0.7,0.7-1.5,1.2-2.4,1.5c-0.7,0.2-1.3,0.4-2.1,0.5
			C154.6,137.6,154.5,137.6,154.4,137.6z"/>
		<path class="st0" d="M275.8,125.8v18.8h-7.5v-18.8c0-0.5-0.1-1-0.3-1.5c-0.2-0.5-0.5-0.9-0.8-1.2s-0.8-0.6-1.2-0.8
			c-0.5-0.2-1-0.3-1.5-0.3c-0.5,0-1,0.1-1.4,0.3c-0.5,0.2-0.9,0.5-1.2,0.8c-0.3,0.4-0.6,0.8-0.8,1.2c-0.2,0.5-0.3,0.9-0.3,1.5v18.8
			h-7.5v-18.8c0-0.5-0.1-1-0.3-1.5c-0.2-0.5-0.5-0.9-0.8-1.2c-0.3-0.4-0.8-0.6-1.2-0.8c-0.5-0.2-0.9-0.3-1.5-0.3
			c-0.5,0-1,0.1-1.5,0.3c-0.5,0.2-0.8,0.5-1.2,0.8s-0.6,0.8-0.8,1.2c-0.2,0.5-0.3,0.9-0.3,1.5v18.8h-7.5V115h3.9v2.3
			c1-0.9,2.2-1.6,3.5-2.1c1.2-0.5,2.6-0.7,3.9-0.7c1.4,0,2.7,0.3,4,0.8c1.3,0.5,2.5,1.4,3.5,2.7c0.5-0.6,1-1.2,1.6-1.6
			c0.6-0.5,1.2-0.8,1.9-1.1c0.6-0.3,1.3-0.5,2-0.6c0.7-0.1,1.4-0.2,2.1-0.2c1.6,0,3,0.3,4.4,0.9c1.4,0.6,2.5,1.4,3.6,2.4
			c1,1,1.8,2.2,2.4,3.6C275.5,122.8,275.8,124.3,275.8,125.8z"/>
	</g>
</g>
</svg>
